<svg version="1.1" xmlns="http://www.w3.org/2000/svg" xmlns:xlink="http://www.w3.org/1999/xlink" x="0px" y="0px" width="125px" height="125px" viewBox="-47.5 -47.5 125 125" enable-background="new -47.5 -47.5 125 125" xml:space="preserve" preserveAspectRatio="xMinYMin meet"><path fill="#fff" d="M53.315-17.916h-74.998v51.249H5.4h20.417h27.498V-17.916z M-0.018,6.667c0,1.666-1.249,2.917-2.915,2.917 h-10.834c-1.666,0-2.917-1.668-2.917-2.917V-7.917c0-1.666,1.668-2.917,2.917-2.917H-3.35c1.666,0,2.917,1.668,2.917,2.917V6.667 H-0.018z M25.817,30.418H6.232V-16.25h19.585V30.418L25.817,30.418z M47.899,6.667c0,1.666-1.664,2.917-2.917,2.917H34.15 c-1.666,0-2.918-1.668-2.918-2.917V-7.917c0-1.666,1.669-2.917,2.918-2.917h10.417c1.668,0,2.917,1.668,2.917,2.917V6.667H47.899z  M12.067,1.251h7.917c1.666,0,2.915-1.669,2.915-2.918V-10c0-1.666-1.666-2.918-2.915-2.918h-7.917 c-2.083,0-3.334,1.252-3.334,2.918v7.916C8.733-0.418,10.399,1.251,12.067,1.251z M19.984,5.417h-7.502 c-2.083,0-3.332,1.25-3.332,2.916v7.916c0,1.668,1.249,2.918,2.917,2.918h7.917c1.666,0,2.915-1.667,2.915-2.918V8.333 C23.316,6.667,21.65,5.417,19.984,5.417z M53.315-19.168L53.734-20c-0.419-4.166,0.415-4.583-4.167-6.667 c-6.25-2.917-9.167-4.167-16.666-5.416C18.732-33.751,6.65-35-9.183-30.417c-7.916,2.083-10.834,2.5-12.083,6.25 c-1.251,2.5-0.417,4.998,0,4.998H53.315z M48.318-25.418c0.83,0,1.664,0.418,1.664,1.669c0,0.832-0.415,1.666-1.664,1.666 c-1.253,0.417-1.668-0.417-1.668-1.251C46.235-24.166,47.065-25.418,48.318-25.418z M43.317-25.418c0.835,0,1.665,0.418,1.665,1.669 c0,0.832-0.415,1.666-1.665,1.666c-0.834,0-1.668-0.417-1.668-1.666C42.068-24.583,42.483-25.418,43.317-25.418z M38.732-25.418 c0.834,0,1.668,0.418,1.668,1.669c0,0.832-0.415,1.666-1.668,1.666c-0.83,0-1.665-0.417-1.665-1.666 C37.067-24.583,37.902-25.418,38.732-25.418z M34.15-25.418c0.834,0,1.666,0.418,1.666,1.669c0,0.832-0.417,1.666-1.666,1.666 s-1.666-0.417-1.666-1.251C32.484-24.583,33.316-25.418,34.15-25.418z M29.566-25.418c0.834,0,1.666,0.418,1.666,1.669 c0,0.832-0.415,1.666-1.666,1.666c-0.832,0-1.666-0.417-1.666-1.666C27.9-24.583,28.734-25.418,29.566-25.418z M4.566-26.667 c0-1.666,1.666-2.917,2.918-2.917h15.415c1.668,0,2.918,1.668,2.918,2.917V-25c0,1.666-1.25,2.917-2.918,2.917H7.484 c-1.667,0-2.918-1.666-2.918-2.917V-26.667L4.566-26.667z M1.234-25.418C2.066-25.418,2.9-25,2.9-23.749 c0,0.832-0.417,1.666-1.666,1.666c-1.252,0-1.667-0.417-1.667-1.251C-0.433-24.583-0.018-25.418,1.234-25.418z M-3.767-25.418 c0.834,0,1.666,0.418,1.666,1.669c0,0.832-0.415,1.666-1.666,1.666c-1.249,0-1.249-0.417-1.249-1.251 C-5.016-24.583-4.599-25.418-3.767-25.418z M-7.934-25.418c0.834,0,1.666,0.418,1.666,1.669c0,0.832-0.415,1.666-1.666,1.666 C-8.766-21.666-9.6-22.5-9.6-23.334C-10.017-24.583-8.766-25.418-7.934-25.418z M-12.518-25.418c0.835,0,1.669,0.418,1.669,1.669 c0,0.832-0.417,1.666-1.669,1.666c-0.832,0-1.666-0.834-1.666-1.666C-14.184-24.583-13.767-25.418-12.518-25.418z M-17.516-25.418 c1.249,0,1.666,0.835,1.666,1.669c0,0.832-0.417,1.666-1.666,1.666c-0.834,0.417-1.252-0.417-1.252-1.251 C-18.768-24.583-18.35-25.418-17.516-25.418z M49.567,63.751h-4.166l-1.669-3.752h3.752l-3.332-5.831H40.4L39.566,52.5H34.15 l0.834,1.668H-3.35l0.834-1.668h-5.418l-0.832,1.668h-3.752l-3.332,5.831h3.749l-1.666,3.752h-4.166l-3.75,6.665h4.167l-3.75,7.084 h10l2.915-6.665h47.917l2.917,6.665h10.002l-3.337-6.665h4.167L49.567,63.751z M-5.016,63.751l1.666-3.752h39.998l1.669,3.752 H-5.016z M-19.183,34.584v7.499l1.667,2.499h9.999v6.25h4.167v-4.167h5.416v-7.499H30.4v7.499h5.416v4.167h4.169v-6.665h10.417 l1.664-2.499v-7.501L-19.183,34.584z M-15.433,41.249c-1.251,0-2.083-0.834-2.083-2.083s0.832-2.084,2.083-2.084 c1.249,0,2.083,0.835,2.083,2.084S-14.184,41.249-15.433,41.249z M-10.017,41.249c-1.249,0-2.084-0.834-2.084-2.083 s0.835-2.084,2.084-2.084c1.251,0,2.083,0.835,2.083,2.084S-8.766,41.249-10.017,41.249z M42.068,41.249 c-1.253,0-2.083-0.834-2.083-2.083s0.83-2.084,2.083-2.084c1.249,0,2.084,0.835,2.084,2.084S43.317,41.249,42.068,41.249z  M47.484,41.249c-1.249,0-2.083-0.834-2.083-2.083s0.834-2.084,2.083-2.084s2.083,0.835,2.083,2.084S48.318,41.249,47.484,41.249z  M-37.1,77.5V-29.584c0-14.583,7.501-17.916,15.417-17.916c0,0,63.332,0,67.918,0c13.749,0,21.663,3.75,21.663,16.25V77.5h-8.333 V-31.667c-0.415-2.499-0.415-7.499-6.665-7.499h-72.917c-9.167,0-8.75,5-8.75,8.333V77.085L-37.1,77.5L-37.1,77.5z"/></svg>