<svg version="1.1" xmlns="http://www.w3.org/2000/svg" xmlns:xlink="http://www.w3.org/1999/xlink" x="0px" y="0px" width="50px" height="50px" viewBox="25 25 50 50" enable-background="new 25 25 50 50" xml:space="preserve" preserveAspectRatio="xMinYMin meet"><circle fill="#fff" cx="50" cy="50" r="25"/><path fill="#00C800" d="M36.85,51.7c-0.6-0.5-1.35-0.75-2.15-0.75c-1.85,0-3,1.399-3,3.25c0,1,0.4,1.85,1.1,2.5l11.4,8.95 c0.55,0.399,1.25,0.6,1.95,0.6c1.1,0,2.1-0.55,2.75-1.35L67.4,41c0.55-0.6,0.949-1.35,0.949-2.25c0-1.85-1.25-3.25-3.149-3.25 c-0.95,0-1.8,0.4-2.4,1L45.7,58.6L36.85,51.7z"/></svg>