<svg version="1.1" xmlns="http://www.w3.org/2000/svg" xmlns:xlink="http://www.w3.org/1999/xlink" x="0px" y="0px" width="50px" height="50px" viewBox="25 25 50 50" enable-background="new 25 25 50 50" xml:space="preserve" preserveAspectRatio="xMinYMin meet"><circle fill="#fff" cx="50" cy="50" r="25"/><path fill="#ff0000" d="M64.4,59.9L54.5,50l9.8-9.8c1.2-1.2,1.3-3.3,0-4.5c-1.2-1.2-3.3-1.2-4.5,0L50,45.5l-9.8-9.8 c-1.2-1.2-3.3-1.2-4.5,0s-1.2,3.3,0,4.5l9.8,9.8l-9.8,9.8c-1.2,1.2-1.3,3.3,0,4.5c1.2,1.2,3.3,1.2,4.5,0l9.8-9.8l9.8,9.8 c1.2,1.2,3.3,1.2,4.5,0C65.6,63.1,65.6,61.1,64.4,59.9z"/></svg>