<svg version="1.1" xmlns="http://www.w3.org/2000/svg" xmlns:xlink="http://www.w3.org/1999/xlink" x="0px" y="0px" width="125px" height="125px" viewBox="-47.5 -47.5 125 125" enable-background="new -47.5 -47.5 125 125" xml:space="preserve" preserveAspectRatio="xMinYMin meet"><path fill="#fff" d="M48.514-41.25c0-2.917-2.525-6.25-4.692-6.25h-57.407c-2.526,0-5.055,3.333-5.055,6.25l-0.361,7.084h67.879 L48.514-41.25z M0.855-43.333h8.665v1.667H0.855V-43.333z M9.521-39.167H0.855v-1.667h8.665V-39.167z M19.271-39.167 c0,0.834-0.723,1.666-1.445,1.666h-5.776c-0.723,0.417-1.444-0.832-1.444-1.666v-4.167c0-0.834,0.722-1.666,1.444-1.666h5.776 c0.723,0.417,1.445,0.832,1.445,1.666V-39.167L19.271-39.167z M20.353-43.333h8.667v1.667h-8.667V-43.333z M29.02-39.167h-8.667 v-1.667h8.667V-39.167L29.02-39.167z M12.772,0.417h3.969c2.529,0,4.334-2.084,4.334-5.001v-16.667c0-2.498-1.805-4.581-3.973-4.581 h-4.33c-2.168,0-4.334,2.498-4.334,5.415V-3.75C8.438-1.667,10.604,0.417,12.772,0.417z M48.877-32.917c0,0-68.24,0.417-67.879,0 L-21.169,8.75l2.167,22.5c0,2.917,1.805,5,4.333,5h4.693v10.834h5.054v-5.001h5.057V36.25h28.161v5.833h5.055v5.001h5.055V36.25 h5.056c2.527,0,4.334-2.083,4.334-5l2.524-22.917L48.877-32.917z M-12.863,14.166c-1.084,0-1.806-0.832-1.806-2.084 c0-1.249,0.722-2.083,1.806-2.083c1.082,0,2.166,0.834,2.166,2.083C-10.697,13.334-11.781,14.166-12.863,14.166z M-8.892,11.668 c0-2.084,1.444-4.167,3.61-4.167c1.806,0,3.61,2.083,3.61,4.167c0,2.083-1.445,4.166-3.61,4.166 C-7.447,15.834-8.892,13.751-8.892,11.668z M0.494-3.75c0,2.918-1.805,5.001-3.97,5.001h-8.306c-2.526,0-4.331-2.083-4.331-5.001 v-17.501c0-2.915,1.805-4.999,4.331-4.999h8.306c2.526,0,3.97,2.083,3.97,4.999V-3.75z M24.324,33.333H5.189v-62.5h19.135V33.333z  M31.185,11.668c0-2.084,1.805-4.167,3.61-4.167c1.805,0,3.61,2.083,3.61,4.167c0,2.083-1.806,4.166-3.61,4.166 C32.989,15.834,31.185,13.751,31.185,11.668z M41.656,14.166c-1.084,0-1.805-0.832-1.805-2.084c0-1.249,0.721-2.083,1.805-2.083 c1.082,0,1.805,0.834,1.805,2.083C43.821,12.917,42.738,14.166,41.656,14.166z M44.905-2.916c0,2.916-1.806,4.999-4.333,4.999 h-8.304c-2.528,0-4.334-2.083-4.334-4.999v-17.501c0-2.917,1.806-5.001,4.334-5.001h8.304c2.527,0,4.333,2.084,4.333,5.001V-2.916z  M53.93,70.001l-3.971-7.919h-3.971l-2.167-4.166h3.974l-3.612-7.084h-3.972l-1.083-2.084h-5.416l1.083,2.084H-6.004l1.082-2.084 h-5.775l-1.084,2.084h-3.972l-3.61,7.084h3.972l-2.167,4.166h-3.97l-3.972,7.919h4.331l-3.61,7.499h10.472l2.888-7.499h50.909 l2.888,7.499h10.471l-3.971-7.499H53.93z M-9.976,62.082l1.443-4.166H36.24l1.805,4.166H-9.976z"/></svg>