<svg version="1.1" xmlns="http://www.w3.org/2000/svg" xmlns:xlink="http://www.w3.org/1999/xlink" x="0px" y="0px" width="125px" height="125px" viewBox="-47.5 -47.5 125 125" enable-background="new -47.5 -47.5 125 125" xml:space="preserve" preserveAspectRatio="xMinYMin meet"><path fill="#fff" d="M50.899-36.249h-25L22.149-47.5H8.4L4.234-35.834h-22.5l-3.334,6.25V33.75l9.584,8.748h57.084l7.499-9.582 v-62.5L50.899-36.249z M45.483-27.916c0.834,0,1.669,0.415,1.669,1.666c0,0.832-0.42,1.667-1.669,1.667s-1.668-0.835-1.668-2.084 C43.4-27.501,44.649-27.916,45.483-27.916z M2.15-30.417c0-1.251,0.832-2.083,2.084-2.083h22.082c1.251,0,2.083,0.832,2.083,2.083 v3.333c0,1.251-0.832,2.084-2.083,2.084H4.234C3.4-25,2.15-25.833,2.15-27.084V-30.417z M-13.267-27.916 c0.834,0,1.666,0.415,1.666,1.666c0,0.832-0.415,1.667-1.666,1.667c-1.25,0-1.667-0.835-1.667-2.084 C-14.933-27.084-14.099-27.916-13.267-27.916z M-17.434-21.666h65.001v1.249h-65.001V-21.666z M-20.349,13.751v-25.834 c0-1.25-0.417-1.667,0-1.667c0,0,0.832,0.417,0.832,1.667l4.167,27.917C-14.933,17.5-20.349,15-20.349,13.751z M-3.683,29.583 c-2.083,0-3.751-1.666-3.751-3.749c0-2.084,1.668-3.75,3.751-3.75c2.084,0,3.75,1.666,3.75,3.75 C0.067,27.917-1.599,29.583-3.683,29.583z M14.65,14.583c0,1.251-0.834,2.083-2.083,2.083H-9.1c-1.249,0-2.083-0.832-2.083-2.083 l-3.75-26.666c0-2.084,1.667-3.333,3.333-3.333h24.168c1.249,0,2.083,0.832,2.083,2.083V14.583L14.65,14.583z M36.316,29.166 c-2.084,0-3.75-1.666-3.75-3.749c0-2.084,1.666-3.75,3.75-3.75c2.083,0,3.751,1.666,3.751,3.75 C40.067,27.5,38.399,29.166,36.316,29.166z M43.4,15c0,1.249-0.834,2.083-2.083,2.083H19.649c-1.249,0-2.083-0.834-2.083-2.083 v-27.083c0-1.25,0.834-2.084,2.5-2.084h24.583c0.834,0,2.918,1.249,2.918,2.918L43.4,15z M51.733-12.083v25.834 c0,1.249-4.581,3.749-4.581,2.083l3.747-27.917c0.419-2.084,0.834-2.084,0.834-2.084S51.733-13.333,51.733-12.083z M-8.683,52.085 h49.585v4.997H-8.683V52.085z M-11.601,44.167l-2.083-1.249v2.498l2.083,1.249h5.835v4.167h42.499v-4.167h7.916l2.503-1.249v-2.498 l-2.084,1.249H-11.601L-11.601,44.167z M45.898,72.499l-3.332-5.416h-3.333l-1.668-2.917h3.337l-2.918-4.167h-3.335l-0.832-1.664 h-4.166l0.832,1.664H-0.35l0.834-1.664H-4.1l-0.834,1.664h-2.915l-2.5,4.167h3.333l-1.667,2.917h-3.333l-2.917,5.416h3.333 l-2.916,5.001H-6.6l2.083-5.001h39.584l2.498,5.001h8.333l-2.913-5.001H45.898z M-2.85,67.083l1.251-2.917h34.582l1.249,2.917H-2.85 z"/></svg>