<svg version="1.1" xmlns="http://www.w3.org/2000/svg" xmlns:xlink="http://www.w3.org/1999/xlink" x="0px" y="0px"  width="125px" height="125px" viewBox="-47.5 -47.5 125 125" enable-background="new -47.5 -47.5 125 125" xml:space="preserve" preserveAspectRatio="xMinYMin meet"><path fill="#fff" d="M41.017,48.332V45h2.918l7.082-14.584v-43.333h-72.083v43.333L-14.4,45h3.333v3.332h5v-4.996h2.501 l3.332-5.418V32.5h4.584V-6.667c0-1.25,0.832-1.25,2.915-1.25c0.418,0,5.418,0,15.418,0c2.084,0,3.333-0.417,3.333,1.667V32.5h4.167 v5.418l3.334,5.418h2.916v4.996H41.017L41.017,48.332z M-13.15,7.084c-0.417,0-0.832-0.834-0.832-1.251V-7.083 c0-0.415,0.832-0.833,0.832-0.833h10.834c0.417,0,0.834,0.418,0.834,0.833V6.25c0,0.417-0.417,1.249-0.834,1.249H-13.15V7.084z  M-3.565,24.584c-2.084,0-3.335-1.666-3.335-3.332c0-1.668,1.666-3.336,3.335-3.336c1.666,0,3.332,1.668,3.332,3.336 C-0.233,22.918-1.899,24.584-3.565,24.584z M32.267,24.584c-1.666,0-3.333-1.666-3.333-3.332c0-1.668,1.667-3.336,3.333-3.336 c2.083,0,3.335,1.668,3.335,3.336C36.019,22.918,34.35,24.584,32.267,24.584z M30.601,7.084c-0.417,0-0.832-0.834-0.832-1.251 V-7.083c0-0.415,0.832-0.833,0.832-0.833h10.834c0.417,0,0.834,0.418,0.834,0.833V6.25c0,0.417-0.417,1.249-0.834,1.249H30.601 V7.084z M48.102-22.083c-4.584-3.335-8.334-3.752-16.25-5.001l-15.835-1.249v-6.25c0,0,1.251,0,1.666,0v-5.001h-1.666v-2.917h5.418 c-0.417,0,6.665,0.834,9.583,2.5c0,0.417,0.834,0.417,0.834,0.417c0.415-0.417,2.083-2.5,2.083-2.5 c-1.668-1.667-3.334-3.75-4.166-3.75L21.018-47.5H7.266l-7.499,1.249c-0.417,0-4.167,3.335-4.167,4.167l2.501,2.5 c0,0,0.417-0.417,1.249-0.834c2.501-0.832,5.001-1.666,7.501-1.666l5.833-0.417v2.917h-1.251v5.001h1.669v6.25l-17.919,1.249 c-3.332,0.417-10,0.834-14.583,5.001C-21.484-20.417-21.484-15-21.484-15h72.085C50.602-14.583,50.602-20.833,48.102-22.083z  M-0.65-17.083h-12.083c0,0,0-1.666,0-2.916c0-1.251,0-1.668,1.249-2.083c6.25-2.083,7.919-1.668,9.585-1.668 c0.832,0,1.249,0.417,1.249,0.834V-17.083z M25.602-19.584c0,1.669-1.251,2.918-2.918,2.918H6.851c-1.668,0-2.917-1.249-2.917-2.918 v-1.249c0-2.083,1.249-3.332,2.917-3.332h16.25c1.667,0,2.916,1.249,2.916,2.915v1.666H25.602z M42.269-17.083h-12.5v-4.999 c0.415-0.834,0.832-1.251,2.083-1.251c2.083,0,3.332-0.417,9.583,1.666c1.249,0.417,1.249,0.834,1.249,2.083 C42.269-18.333,42.269-17.083,42.269-17.083z M18.1,8.333c1.667,0,2.918-1.249,2.918-2.917v-8.334c0-1.666-1.251-2.915-2.918-2.915 h-7.916c-1.666,0-2.918,1.249-2.918,2.915v8.334c0,1.668,1.252,2.917,2.918,2.917H18.1z M0.601,33.752H28.1v5.416H0.601V33.752z  M8.101-22.917c1.249,0,2.083,0.834,2.083,2.083s-0.834,2.501-2.083,2.501c-1.25,0-2.084-0.835-2.084-2.501 C5.6-21.667,6.851-22.917,8.101-22.917z M21.85-22.917c1.251,0,2.083,1.249,2.083,2.5c0,1.249-0.832,2.084-2.083,2.084 c-1.249,0-2.083-0.835-2.083-2.084C19.352-21.667,20.601-22.917,21.85-22.917z M56.852,70.834l-4.166-7.084h-4.584l-2.084-3.746 h4.167l-3.75-6.252h-4.166l-1.252-2.082h-5.833l0.835,2.082H-6.483l0.834-2.082h-6.25l-1.251,2.082h-3.75l-3.75,6.252h4.584 l-2.083,3.746h-4.584l-4.167,7.084h4.584l-4.167,6.666h11.249l3.334-6.666h53.751l3.332,6.666h10.834l-4.167-6.666H56.852z  M-10.65,63.336l1.666-3.752h47.5l1.668,3.752H-10.65z"/></svg>