<svg version="1.1" id="septa" xmlns="http://www.w3.org/2000/svg" xmlns:xlink="http://www.w3.org/1999/xlink" x="0px" y="0px" viewBox="0 0 91.508 88.857" xml:space="preserve">
	<style type="text/css">
	<![CDATA[
		.red{fill:#e10000;}
		.white{fill:#fff;}
		.blue{fill:#000e78;}
	]]>
	</style>
	<path class="white" d="M91.43,63.373c-0.039-0.118-0.039-0.197-0.078-0.276c-0.119-0.236-0.275-0.434-0.436-0.631 c-0.196-0.159-0.395-0.276-0.629-0.396c-0.238-0.078-0.516-0.117-0.752-0.117c-0.275,0-0.514,0.039-0.748,0.117 c-0.238,0.118-0.476,0.235-0.633,0.435c-0.197,0.158-0.316,0.354-0.435,0.592c-0.039,0.079-0.079,0.158-0.079,0.276 c-0.078,0.159-0.078,0.314-0.078,0.513c0,0.276,0.039,0.514,0.157,0.75c0.118,0.237,0.237,0.435,0.435,0.632 c0.158,0.157,0.395,0.315,0.633,0.396c0.234,0.118,0.473,0.157,0.748,0.157c0.354,0,0.672-0.078,0.986-0.236 c0.275-0.197,0.514-0.436,0.711-0.71c0.157-0.316,0.275-0.632,0.275-0.987C91.508,63.688,91.47,63.532,91.43,63.373z M90.917,64.715 c-0.117,0.236-0.314,0.434-0.551,0.592c-0.277,0.118-0.515,0.197-0.83,0.197c-0.275,0-0.552-0.079-0.787-0.197 c-0.238-0.158-0.436-0.354-0.594-0.592c-0.117-0.276-0.197-0.553-0.197-0.829c0-0.197,0.039-0.354,0.08-0.513 c0-0.039,0.039-0.079,0.039-0.118c0.078-0.198,0.196-0.396,0.354-0.553c0.119-0.118,0.316-0.236,0.514-0.315 c0.157-0.08,0.395-0.118,0.592-0.118c0.236,0,0.435,0.038,0.633,0.118c0.197,0.079,0.354,0.197,0.513,0.315 c0.118,0.157,0.235,0.315,0.315,0.553c0,0.039,0.039,0.079,0.039,0.118c0.039,0.159,0.078,0.314,0.078,0.513h0.002 C91.116,64.162,91.075,64.438,90.917,64.715z M89.852,64.005c0.118,0,0.236-0.04,0.316-0.119c0.039-0.039,0.039-0.039,0.078-0.078 c0.119-0.079,0.158-0.237,0.158-0.435c0-0.236-0.078-0.396-0.197-0.475c-0.119-0.117-0.316-0.156-0.553-0.156h-0.867v0.631v0.513 v1.105h0.354v-0.986h0.396l0.592,0.986h0.354L89.852,64.005z M89.141,63.019h0.436c0.354,0,0.512,0.118,0.512,0.354 c0,0.159-0.039,0.236-0.156,0.275c-0.079,0.079-0.236,0.079-0.395,0.079h-0.396v-0.354V63.019z M2.196,82.556h3.803 c0,0.688,0.217,1.269,0.543,1.738c0.326,0.435,0.797,0.761,1.34,0.979c0.544,0.218,1.159,0.326,1.812,0.326 c2.717,0,4.129-0.798,4.165-2.319c0-0.542-0.146-0.939-0.435-1.267c-0.29-0.29-0.616-0.507-0.978-0.616 c-0.399-0.145-1.051-0.324-1.992-0.579c-0.797-0.181-1.377-0.325-1.812-0.397c-1.268-0.254-2.354-0.579-3.224-0.941 c-0.869-0.397-1.557-0.94-2.101-1.737c-0.543-0.762-0.796-1.775-0.796-3.008c0.035-1.158,0.325-2.137,0.868-3.006 c0.58-0.869,1.377-1.521,2.428-1.992c1.05-0.471,2.354-0.688,3.839-0.688c1.376,0,2.535,0.181,3.513,0.543 c0.942,0.362,1.739,0.869,2.282,1.448c0.579,0.58,0.978,1.23,1.267,1.956c0.254,0.688,0.399,1.413,0.436,2.101H13.35 c-0.181-1.847-1.484-2.789-3.947-2.789c-0.905,0.037-1.666,0.218-2.245,0.544c-0.616,0.326-0.942,0.869-1.015,1.594 c0,0.979,0.508,1.631,1.521,1.955c0.942,0.219,1.847,0.436,2.68,0.652c0.833,0.181,1.449,0.362,1.848,0.471 c1.376,0.326,2.427,0.688,3.223,1.052c0.761,0.397,1.341,0.94,1.739,1.557c0.397,0.652,0.58,1.521,0.58,2.571 c0,1.305-0.29,2.391-0.87,3.224c-0.579,0.833-1.303,1.449-2.101,1.883c-0.833,0.436-1.63,0.689-2.391,0.834 c-0.724,0.145-1.376,0.218-1.883,0.218C5.13,88.821,2.341,86.685,2.196,82.556z M34.974,88.242v-3.261H24.578v-4.926h9.164v-3.26 h-9.164v-4.093h9.961v-3.26H20.667v18.798L34.974,88.242L34.974,88.242z M52.432,75.24c0,0.071,0,0.181,0,0.253 c-0.036,1.666-0.471,3.043-1.342,4.093c-0.904,1.159-2.391,1.702-4.526,1.702h-4.527v6.954h-3.912V69.445h8.62 c0.942,0,1.739,0.146,2.463,0.436c0.688,0.325,1.306,0.724,1.775,1.267c0.508,0.544,0.869,1.159,1.086,1.849 C52.322,73.683,52.432,74.443,52.432,75.24z M48.556,75.493c0-0.905-0.218-1.595-0.616-2.064c-0.396-0.471-1.304-0.725-2.716-0.725 h-3.188v5.542h3.658c0.833,0,1.449-0.146,1.883-0.399c0.437-0.253,0.688-0.579,0.797-0.978 C48.483,76.508,48.556,76.036,48.556,75.493z M63.549,88.242V72.704h5.578v-3.26H53.917v3.26h5.758v15.538H63.549z M86.006,88.242 h-4.274l-1.194-3.875h-6.883l-1.34,3.875h-4.092l6.627-18.798h4.527L86.006,88.242z M79.45,81.288l-2.354-7.605h-0.073l-2.354,7.605 H79.45z M10.694,0h67.398c5.88,0,10.693,4.617,10.693,10.26v45.024c0,5.643-4.813,10.259-10.693,10.259H10.694 C4.815,65.543,0,60.927,0,55.284V10.26C0,4.617,4.815,0,10.694,0z"/>
	<path class="blue" d="M10.419,63.058h17.953L56.706,43.13H30.346L9.708,22.61L29.676,2.604H10.419c-4.578,0-7.813,4.498-7.813,7.773 v45.024C2.605,58.559,5.841,63.058,10.419,63.058z"/>
	<path class="red" d="M86.299,10.338v45.023c0,3.196-3.313,7.695-7.852,7.695H59.23L79.081,43.09L58.52,22.61H32.122L60.454,2.604 h17.994C82.985,2.604,86.299,7.103,86.299,10.338z M36.659,24.505h-2.525l15.469,15.468c0.71,0.593,1.263,1.304,2.485,1.225h2.645 l-15.548-15.43C38.475,24.979,37.961,24.505,36.659,24.505z"/>
</svg>
