<svg version="1.1" xmlns="http://www.w3.org/2000/svg" xmlns:xlink="http://www.w3.org/1999/xlink" x="0px" y="0px" viewBox="0 0 460 83.4" style="enable-background:new 0 0 460 83.4;" xml:space="preserve" preserveAspectRatio="xMinYMin meet"><style type="text/css">.white{fill:#fff;}.red{fill:#e10000;}.navy{fill:#000e78;}</style><path class="white" d="M13.5,0h85.4c7.4,0,13.5,5.9,13.5,13v57c0,7.1-6.1,13-13.5,13H13.5C6.1,83,0,77.2,0,70V13C0,5.9,6.1,0,13.5,0z"/><path class="red" d="M99.4,3.3H76.6L40.7,28.6h33.4l26,25.9L75,79.9h24.3c5.7,0,9.9-5.7,9.9-9.7v-57C109.3,9,105.1,3.3,99.4,3.3z"/><path class="navy" d="M13.2,79.9h22.7l35.9-25.2H38.4l-26.1-26L37.6,3.3H13.2c-5.8,0-9.9,5.7-9.9,9.8v57 C3.3,74.2,7.4,79.9,13.2,79.9z"/><path class="red" d="M46.4,31h-3.2l19.6,19.6c0.9,0.8,1.6,1.7,3.1,1.6h3.4L49.6,32.6C48.7,31.6,48.1,31,46.4,31z"/><path class="white" d="M126.5,58.1h15.1c0,2.7,0.9,5,2.2,6.9c1.3,1.7,3.2,3,5.3,3.9c2.2,0.9,4.6,1.3,7.2,1.3 c10.8,0,16.4-3.2,16.6-9.2c0-2.2-0.6-3.7-1.7-5c-1.2-1.2-2.4-2-3.9-2.4c-1.6-0.6-4.2-1.3-7.9-2.3c-3.2-0.7-5.5-1.3-7.2-1.6 c-5-1-9.4-2.3-12.8-3.7c-3.5-1.6-6.2-3.7-8.4-6.9c-2.2-3-3.2-7.1-3.2-12c0.1-4.6,1.3-8.5,3.5-12c2.3-3.5,5.5-6.1,9.7-7.9 c4.2-1.9,9.4-2.7,15.3-2.7c5.5,0,10.1,0.7,14,2.2c3.7,1.4,6.9,3.5,9.1,5.8c2.3,2.3,3.9,4.9,5,7.8c1,2.7,1.6,5.6,1.7,8.4h-15.1 c-0.7-7.3-5.9-11.1-15.7-11.1c-3.6,0.1-6.6,0.9-8.9,2.2c-2.5,1.3-3.7,3.5-4,6.3c0,3.9,2,6.5,6.1,7.8c3.7,0.9,7.4,1.7,10.7,2.6 c3.3,0.7,5.8,1.4,7.4,1.9c5.5,1.3,9.7,2.7,12.8,4.2c3,1.6,5.3,3.7,6.9,6.2c1.6,2.6,2.3,6.1,2.3,10.2c0,5.2-1.2,9.5-3.5,12.8 c-2.3,3.3-5.2,5.8-8.4,7.5c-3.3,1.7-6.5,2.7-9.5,3.3c-2.9,0.6-5.5,0.9-7.5,0.9C138.1,83,127,74.5,126.5,58.1z"/><polygon class="white" points="200,80.7 200,5.9 255.2,5.9 255.2,18.9 215.5,18.9 215.5,35.2 252,35.2 252,48.1 215.5,48.1 215.5,67.7 256.9,67.7 256.9,80.7"/><path class="white" d="M324.9,20c-0.9-2.7-2.3-5.2-4.3-7.4c-1.9-2.2-4.3-3.7-7.1-5c-2.9-1.2-6.1-1.7-9.8-1.7h-34.3V30v50.7H285V53 h18c8.5,0,14.4-2.2,18-6.8c3.5-4.2,5.2-9.7,5.3-16.3c0-0.3,0-0.7,0-1C326.4,25.8,326,22.8,324.9,20z M310.2,35.4 c-0.4,1.6-1.4,2.9-3.2,3.9c-1.7,1-4.2,1.6-7.5,1.6H285V30V18.9h12.7c5.6,0,9.2,1,10.8,2.9c1.6,1.9,2.5,4.6,2.5,8.2 C311,32.1,310.7,34,310.2,35.4z"/><polygon class="white" points="355.2,80.7 355.2,18.9 332.3,18.9 332.3,5.9 392.8,5.9 392.8,18.9 370.6,18.9 370.6,80.7"/><path class="white" d="M444.9,37.9l-11.2-32h-18l-11.2,32l-15.1,42.8h16.3l5.3-15.4h27.4l4.8,15.4h17L444.9,37.9z M414.9,53 l4.6-15.1l4.8-15.1h0.3l4.6,15.1l4.8,15.1H414.9z"/><path class="white" d="M115.8,80.3L115.8,80.3c-0.1-0.1-0.1-0.2-0.1-0.3c-0.2-0.3-0.3-0.5-0.5-0.8c-0.3-0.2-0.5-0.3-0.8-0.5 c-0.3-0.1-0.7-0.2-1-0.2c-0.3,0-0.6,0.1-1,0.2c-0.3,0.2-0.6,0.3-0.8,0.5c-0.3,0.2-0.4,0.4-0.5,0.8c-0.1,0.1-0.1,0.2-0.1,0.3h0 c-0.1,0.2-0.1,0.4-0.1,0.6c0,0.3,0,0.6,0.2,0.9c0.2,0.3,0.3,0.6,0.5,0.8c0.2,0.2,0.5,0.4,0.8,0.5c0.3,0.1,0.6,0.2,1,0.2 c0.5,0,0.9-0.1,1.2-0.3c0.3-0.2,0.7-0.5,0.9-0.9c0.2-0.4,0.3-0.8,0.3-1.2C115.9,80.7,115.9,80.5,115.8,80.3z M115.2,82 c-0.1,0.3-0.4,0.5-0.7,0.7c-0.3,0.2-0.6,0.3-1,0.3c-0.3,0-0.7-0.1-1-0.3c-0.3-0.2-0.5-0.5-0.8-0.7c-0.1-0.3-0.3-0.7-0.3-1.1 c0-0.3,0.1-0.5,0.1-0.6h0c0-0.1,0-0.1,0-0.1c0.1-0.3,0.3-0.5,0.5-0.7c0.2-0.2,0.4-0.3,0.6-0.4c0.2-0.1,0.5-0.2,0.8-0.2 c0.3,0,0.5,0.1,0.8,0.2c0.3,0.1,0.5,0.2,0.6,0.4c0.2,0.2,0.3,0.4,0.4,0.7c0,0.1,0,0.1,0,0.1c0.1,0.2,0.1,0.4,0.1,0.6h0 C115.4,81.3,115.4,81.6,115.2,82z M114.2,80.9c0.1,0,0.1,0,0.1-0.1c0.2-0.1,0.2-0.3,0.2-0.5c0-0.3-0.1-0.5-0.3-0.6 c-0.1-0.2-0.4-0.2-0.7-0.2h-1.1v0.8v0.6v1.4h0.4v-1.2h0.5l0.7,1.2h0.5l-0.8-1.2C114,81.1,114.1,81,114.2,80.9z M112.9,79.8h0.6 c0.5,0,0.7,0.1,0.7,0.4c0,0.2-0.1,0.3-0.2,0.4c-0.1,0.1-0.3,0.1-0.5,0.1h-0.5v-0.5V79.8z"/></svg>
