<svg version="1.1" xmlns="http://www.w3.org/2000/svg" xmlns:xlink="http://www.w3.org/1999/xlink" x="0px" y="0px"  width="125px" height="125px" viewBox="-47.5 -47.5 125 125" enable-background="new -47.5 -47.5 125 125" xml:space="preserve" preserveAspectRatio="xMinYMin meet"><path fill="#fff" d="M-20.838,54.087h8.779V39.875h54.348v14.212h7.942c0,0,0.837-33.861,1.255-35.533 c0.419-2.09,0-5.853,0-6.689s-5.852-39.715-6.271-42.224c-0.418-2.509-3.762-3.762-5.853-3.762H15.952v-7.942l1.672-1.672V-47.5 H14.28h-2.928v3.764l1.672,1.672v7.942H-9.55c-2.09,0-5.434,1.253-5.434,3.762c-0.418,2.509-6.271,41.806-6.271,42.224 c0,0.837-0.418,5.018,0,6.689C-22.091,20.226-20.838,54.087-20.838,54.087z M-7.459,35.694c-2.09,0-3.344-1.674-3.344-3.346 s1.672-3.344,3.344-3.344s3.343,1.672,3.343,3.344C-4.532,34.439-5.788,35.694-7.459,35.694z M-7.459,28.168 c-2.09,0-3.344-1.672-3.344-3.344c0-1.671,1.672-3.345,3.344-3.345s3.343,1.674,3.343,3.345 C-4.532,26.496-5.788,28.168-7.459,28.168z M36.854,36.111c-1.672,0-3.346-1.672-3.346-3.344c0-2.091,1.674-3.344,3.346-3.344 c2.091,0,3.344,1.672,3.344,3.344S38.526,36.111,36.854,36.111z M36.854,28.168c-1.672,0-3.346-1.672-3.346-3.344 c0-1.671,1.674-3.345,3.346-3.345c2.091,0,3.344,1.674,3.344,3.345C40.198,26.496,38.526,28.168,36.854,28.168z M39.363-19.489 h3.344c0.419,0,0.837,1.672,0.837,1.672s3.762,29.682,3.762,30.519c0,0.835,0.419,1.672-0.837,2.091 c-0.418,0.416-2.508,0.416-3.343,0c-0.419-0.419-0.419-2.091-0.419-2.091l-3.344-30.519V-19.489z M14.28-31.194 c1.253,0,2.507,1.253,2.507,2.507c0,1.255-0.835,2.509-2.507,2.509c-1.256,0-2.091-1.253-2.091-2.509 C12.189-29.941,13.024-31.194,14.28-31.194z M-7.041-21.161c0.835-2.509,2.925-2.928,5.016-2.928h16.722h16.723 c2.509,0,4.181,0.419,5.018,3.346c0.418,0.417,0.418,0.835,0.837,4.181H-7.459C-7.041-19.908-7.041-20.326-7.041-21.161z  M-7.878-14.891h45.151c1.253,9.614,3.344,26.755,3.344,28.009c0,1.255-0.419,3.346-4.181,3.346c-3.763,0-21.74,0-21.74,0 s-17.976,0-21.737,0c-3.762,0-4.181-2.091-4.181-3.346C-11.222,11.864-9.131-5.276-7.878-14.891z M-14.983-17.817 c0,0,0.416-1.672,0.834-1.672h3.346l0.417,1.253l-3.344,30.938c0,0,0,1.672-0.837,2.091c-0.834,0.416-3.343,0-3.343,0 c-0.418-0.837-0.837-1.674-0.837-2.091C-18.748,11.864-14.983-17.817-14.983-17.817z M-24.6,77.5h6.271l8.361-12.125h-3.762 L-24.6,77.5z M43.126,64.958h-3.763L48.56,77.5h6.271L43.126,64.958z M39.78,42.803h-8.778v5.85H14.28H-2.442v-5.85h-8.361v17.555 h1.672v4.181h2.09v-8.777h0.835v2.506h16.722v-2.506h3.346h3.344v2.506h16.723v-2.506h0.837v8.36h2.09V59.94h2.091L39.78,42.803 L39.78,42.803z M-0.771,43.219h30.518v3.764H-0.771V43.219z"/></svg>